<?xml version="1.0" encoding="UTF-8"?>
<svg version="1.1" xmlns="http://www.w3.org/2000/svg" width="500" height="500">
<path d="M0 0 C4.0230673 1.26652119 5.21532512 2.49073001 7.375 6.0625 C8.65914333 9.5033438 8.17824624 11.3304031 6.77612305 14.67578125 C6.21510139 16.0373938 6.21510139 16.0373938 5.64274597 17.42651367 C5.22825699 18.39951416 4.81376801 19.37251465 4.38671875 20.375 C3.9683223 21.38087158 3.54992584 22.38674316 3.11885071 23.4230957 C1.77727061 26.64075381 0.41994417 29.851507 -0.9375 33.0625 C-1.841499 35.2261432 -2.74450593 37.39020119 -3.64648438 39.5546875 C-5.30444231 43.52201474 -6.96467724 47.48831892 -8.63793945 51.44921875 C-8.97404739 52.24545654 -9.31015533 53.04169434 -9.65644836 53.86206055 C-10.58247482 55.96588761 -11.57813516 58.01652006 -12.625 60.0625 C-11.26568359 59.55589844 -11.26568359 59.55589844 -9.87890625 59.0390625 C-8.66074219 58.59304687 -7.44257813 58.14703125 -6.1875 57.6875 C-4.99253906 57.24664062 -3.79757812 56.80578125 -2.56640625 56.3515625 C20.07739814 48.67327764 46.36559094 51.91810665 67.6875 62.1484375 C77.36858781 67.04421583 85.65925095 73.47752636 93.375 81.0625 C94.07367188 81.74828125 94.77234375 82.4340625 95.4921875 83.140625 C112.09672161 100.58507718 118.06515074 124.00660916 117.62890625 147.4765625 C116.23822703 187.46383138 99.61988205 221.48761631 72.375 250.0625 C71.64796875 250.84238281 70.9209375 251.62226563 70.171875 252.42578125 C47.43458304 276.13151343 14.97426279 293.32988093 -15.625 304.25 C-16.83397949 304.68723389 -16.83397949 304.68723389 -18.06738281 305.13330078 C-27.45884375 308.32671545 -34.55477443 306.53536283 -43.8125 303.625 C-45.53702393 303.08637329 -45.53702393 303.08637329 -47.29638672 302.53686523 C-94.17465098 287.47976704 -133.35289994 256.15590906 -156.4140625 212.42578125 C-171.90306595 182.20154584 -181.73638892 146.44156051 -171.0625 113.0625 C-166.40288988 99.45053355 -159.209044 87.75675241 -149.625 77.0625 C-150.20765625 76.79308594 -150.7903125 76.52367187 -151.390625 76.24609375 C-165.4195164 68.81470547 -172.64260706 52.81617879 -177.90234375 38.61328125 C-178.80074692 35.67994077 -179.51379372 33.12792524 -179.625 30.0625 C-177.3125 26.8125 -177.3125 26.8125 -174.625 25.0625 C-169.86894366 26.91207746 -169.86894366 26.91207746 -167.93359375 28.10546875 C-157.74333617 32.32985641 -143.72426062 28.72677241 -133.85791016 25.00488281 C-128.91057834 22.91689891 -124.22259574 20.31756016 -119.52026367 17.73486328 C-112.74607591 14.02945579 -106.0540995 11.25202868 -98.625 9.0625 C-97.83996094 8.81886719 -97.05492187 8.57523438 -96.24609375 8.32421875 C-79.71329431 4.09757263 -61.92699859 6.66416491 -47.125 14.875 C-37.33517904 21.33036852 -29.64881317 30.57200995 -26.625 42.0625 C-25.965 42.0625 -25.305 42.0625 -24.625 42.0625 C-24.24988281 40.88300781 -23.87476563 39.70351562 -23.48828125 38.48828125 C-21.42234511 32.30741666 -19.04587874 26.25214641 -16.60131836 20.21313477 C-16.07308003 18.89850634 -15.55262351 17.58072566 -15.03979492 16.26000977 C-14.28802449 14.32575963 -13.51211028 12.40281059 -12.73046875 10.48046875 C-12.27824951 9.34375732 -11.82603027 8.2070459 -11.36010742 7.03588867 C-8.5961097 2.29932918 -5.49889636 0.09480856 0 0 Z " fill="#FC7A5D" transform="translate(295.625,95.9375)"/>
<path d="M0 0 C4.0230673 1.26652119 5.21532512 2.49073001 7.375 6.0625 C8.65914333 9.5033438 8.17824624 11.3304031 6.77612305 14.67578125 C6.21510139 16.0373938 6.21510139 16.0373938 5.64274597 17.42651367 C5.22825699 18.39951416 4.81376801 19.37251465 4.38671875 20.375 C3.9683223 21.38087158 3.54992584 22.38674316 3.11885071 23.4230957 C1.77727061 26.64075381 0.41994417 29.851507 -0.9375 33.0625 C-1.841499 35.2261432 -2.74450593 37.39020119 -3.64648438 39.5546875 C-5.30444231 43.52201474 -6.96467724 47.48831892 -8.63793945 51.44921875 C-8.97404739 52.24545654 -9.31015533 53.04169434 -9.65644836 53.86206055 C-10.58247482 55.96588761 -11.57813516 58.01652006 -12.625 60.0625 C-11.26568359 59.55589844 -11.26568359 59.55589844 -9.87890625 59.0390625 C-8.66074219 58.59304687 -7.44257813 58.14703125 -6.1875 57.6875 C-4.99253906 57.24664062 -3.79757812 56.80578125 -2.56640625 56.3515625 C20.07739814 48.67327764 46.36559094 51.91810665 67.6875 62.1484375 C77.36858781 67.04421583 85.65925095 73.47752636 93.375 81.0625 C94.07367188 81.74828125 94.77234375 82.4340625 95.4921875 83.140625 C112.09672161 100.58507718 118.06515074 124.00660916 117.62890625 147.4765625 C116.23822703 187.46383138 99.61988205 221.48761631 72.375 250.0625 C71.64796875 250.84238281 70.9209375 251.62226563 70.171875 252.42578125 C47.43458304 276.13151343 14.97426279 293.32988093 -15.625 304.25 C-16.83397949 304.68723389 -16.83397949 304.68723389 -18.06738281 305.13330078 C-27.45884375 308.32671545 -34.55477443 306.53536283 -43.8125 303.625 C-45.53702393 303.08637329 -45.53702393 303.08637329 -47.29638672 302.53686523 C-94.17465098 287.47976704 -133.35289994 256.15590906 -156.4140625 212.42578125 C-171.90306595 182.20154584 -181.73638892 146.44156051 -171.0625 113.0625 C-166.40288988 99.45053355 -159.209044 87.75675241 -149.625 77.0625 C-150.20765625 76.79308594 -150.7903125 76.52367187 -151.390625 76.24609375 C-165.4195164 68.81470547 -172.64260706 52.81617879 -177.90234375 38.61328125 C-178.80074692 35.67994077 -179.51379372 33.12792524 -179.625 30.0625 C-177.3125 26.8125 -177.3125 26.8125 -174.625 25.0625 C-169.86894366 26.91207746 -169.86894366 26.91207746 -167.93359375 28.10546875 C-157.74333617 32.32985641 -143.72426062 28.72677241 -133.85791016 25.00488281 C-128.91057834 22.91689891 -124.22259574 20.31756016 -119.52026367 17.73486328 C-112.74607591 14.02945579 -106.0540995 11.25202868 -98.625 9.0625 C-97.83996094 8.81886719 -97.05492187 8.57523438 -96.24609375 8.32421875 C-79.71329431 4.09757263 -61.92699859 6.66416491 -47.125 14.875 C-37.33517904 21.33036852 -29.64881317 30.57200995 -26.625 42.0625 C-25.965 42.0625 -25.305 42.0625 -24.625 42.0625 C-24.24988281 40.88300781 -23.87476563 39.70351562 -23.48828125 38.48828125 C-21.42234511 32.30741666 -19.04587874 26.25214641 -16.60131836 20.21313477 C-16.07308003 18.89850634 -15.55262351 17.58072566 -15.03979492 16.26000977 C-14.28802449 14.32575963 -13.51211028 12.40281059 -12.73046875 10.48046875 C-12.27824951 9.34375732 -11.82603027 8.2070459 -11.36010742 7.03588867 C-8.5961097 2.29932918 -5.49889636 0.09480856 0 0 Z M-69.51171875 64.4765625 C-70.44193848 64.98791748 -71.3721582 65.49927246 -72.33056641 66.02612305 C-73.31460449 66.57437744 -74.29864258 67.12263184 -75.3125 67.6875 C-87.31481627 74.17835416 -101.75877665 81.84318375 -115.828125 80.84375 C-126.93131764 79.69540539 -126.93131764 79.69540539 -137.13671875 82.9921875 C-141.20943832 86.88735819 -141.20943832 86.88735819 -142.625 92.0625 C-143.615 92.3925 -144.605 92.7225 -145.625 93.0625 C-145.625 94.0525 -145.625 95.0425 -145.625 96.0625 C-147.11 96.5575 -147.11 96.5575 -148.625 97.0625 C-148.955 98.2175 -149.285 99.3725 -149.625 100.5625 C-149.955 101.7175 -150.285 102.8725 -150.625 104.0625 C-152.11 104.5575 -152.11 104.5575 -153.625 105.0625 C-155.43405134 109.23262939 -156.46334191 113.67401388 -157.625 118.0625 C-158.08132812 119.71765625 -158.08132812 119.71765625 -158.546875 121.40625 C-166.45476592 153.33622466 -154.86082976 188.47362056 -138.53051758 215.90332031 C-132.0156278 226.52054133 -124.18765342 236.02653408 -115.625 245.0625 C-114.78324219 245.95710937 -113.94148438 246.85171875 -113.07421875 247.7734375 C-94.24612852 267.22822248 -70.11575479 280.28550142 -44.75634766 289.28417969 C-42.76186051 290.01252161 -40.81390362 290.81363193 -38.85546875 291.6328125 C-27.06570718 295.89909675 -18.50769983 291.84369341 -7.625 287.0625 C-6.71202148 286.67658691 -5.79904297 286.29067383 -4.85839844 285.89306641 C21.10024692 274.91195363 44.09682219 260.36601238 64.0390625 240.39453125 C65.3392006 239.09656729 66.65167609 237.80965247 68.0078125 236.5703125 C86.7683676 219.18487663 100.9738566 190.48637127 103.375 165.0625 C103.54626788 161.60328218 103.54626788 161.60328218 103.375 159.0625 C104.035 159.0625 104.695 159.0625 105.375 159.0625 C106.48864269 148.02550546 107.1003329 137.06149722 105.375 126.0625 C104.715 126.0625 104.055 126.0625 103.375 126.0625 C103.2821875 124.45375 103.2821875 124.45375 103.1875 122.8125 C102.45174744 116.80918561 99.82318697 111.53535833 97.375 106.0625 C96.76831801 104.64690869 96.1636233 103.23046071 95.5625 101.8125 C94.9746875 100.45125 94.9746875 100.45125 94.375 99.0625 C93.715 99.0625 93.055 99.0625 92.375 99.0625 C91.9728125 97.6084375 91.9728125 97.6084375 91.5625 96.125 C91.170625 95.114375 90.77875 94.10375 90.375 93.0625 C89.385 92.7325 88.395 92.4025 87.375 92.0625 C87.045 91.0725 86.715 90.0825 86.375 89.0625 C83.89989032 86.5133222 81.11812074 84.31698724 78.375 82.0625 C77.79878906 81.56492187 77.22257813 81.06734375 76.62890625 80.5546875 C58.72827983 65.96308556 35.87964446 61.64171112 13.375 63.0625 C-6.48350591 65.30025036 -22.34693919 76.47335345 -38.38354492 87.5637207 C-40.75179426 89.1472827 -43.17141713 90.61541826 -45.625 92.0625 C-44.32291667 90.56510417 -43.02083333 89.06770833 -41.71875 87.5703125 C-40.42927542 86.10313579 -40.42927542 86.10313579 -40.625 84.0625 C-40.068125 83.835625 -39.51125 83.60875 -38.9375 83.375 C-35.96340412 81.68699964 -33.90491135 79.59573483 -31.625 77.0625 C-31.625 76.4025 -31.625 75.7425 -31.625 75.0625 C-49.74412756 63.10190812 -49.74412756 63.10190812 -69.51171875 64.4765625 Z " fill="#0302FB" transform="translate(295.625,95.9375)"/>
<path d="M0 0 C1.66093568 1.70452979 2.54050746 3.35633482 3.48828125 5.52734375 C4.14828125 5.52734375 4.80828125 5.52734375 5.48828125 5.52734375 C8.48828125 11.27734375 8.48828125 11.27734375 8.48828125 13.52734375 C9.14828125 13.52734375 9.80828125 13.52734375 10.48828125 13.52734375 C11.94890975 16.17473291 12.48828125 17.42182709 12.48828125 20.52734375 C11.82828125 20.52734375 11.16828125 20.52734375 10.48828125 20.52734375 C9.63363281 19.62048828 9.63363281 19.62048828 8.76171875 18.6953125 C6.04395094 16.1036267 3.62551202 15.13748612 0.11328125 13.83984375 C-1.53800781 13.21529297 -1.53800781 13.21529297 -3.22265625 12.578125 C-17.10987151 8.14147309 -33.67766162 9.62125703 -47.51171875 13.52734375 C-46.69102905 13.4504834 -46.69102905 13.4504834 -45.85375977 13.37207031 C-28.43635672 11.85166215 -12.6521306 12.78626995 2.48828125 22.52734375 C2.81828125 23.18734375 3.14828125 23.84734375 3.48828125 24.52734375 C2.8334375 24.4809375 2.17859375 24.43453125 1.50390625 24.38671875 C-10.49224599 23.91229465 -19.09150695 28.00585806 -29.03125 34.37109375 C-39.53409537 41.00129743 -50.40115151 45.72529094 -62.51171875 48.52734375 C-63.73955078 48.82898438 -63.73955078 48.82898438 -64.9921875 49.13671875 C-76.58520146 50.93408526 -87.96977962 47.7081625 -97.63671875 41.40234375 C-102.87409882 37.52249259 -110.4321882 31.85301511 -112.0703125 25.2890625 C-112.21597656 24.70769531 -112.36164063 24.12632812 -112.51171875 23.52734375 C-113.50171875 23.19734375 -114.49171875 22.86734375 -115.51171875 22.52734375 C-116.6796875 20.09375 -116.6796875 20.09375 -117.69921875 17.08984375 C-118.04339844 16.10113281 -118.38757813 15.11242187 -118.7421875 14.09375 C-119.51171875 11.52734375 -119.51171875 11.52734375 -119.51171875 9.52734375 C-114.90690616 11.30985185 -114.90690616 11.30985185 -112.84375 12.4453125 C-104.70540247 16.68505043 -95.48755597 17.32204313 -86.51171875 18.52734375 C-86.51171875 17.86734375 -86.51171875 17.20734375 -86.51171875 16.52734375 C-87.81109375 16.63046875 -89.11046875 16.73359375 -90.44921875 16.83984375 C-95.78640217 16.86291515 -100.49623498 15.64511653 -105.57421875 14.15234375 C-106.33661865 13.93102783 -107.09901855 13.70971191 -107.88452148 13.48168945 C-109.78236628 12.89778666 -111.65070375 12.21971686 -113.51171875 11.52734375 C-113.84171875 10.86734375 -114.17171875 10.20734375 -114.51171875 9.52734375 C-113.75890625 9.56214844 -113.00609375 9.59695312 -112.23046875 9.6328125 C-95.76824885 10.05235937 -81.71205499 5.9797597 -66.97729492 -1.11962891 C-45.39722451 -11.50131769 -20.32811502 -15.71402467 0 0 Z " fill="#008F55" transform="translate(245.51171875,123.47265625)"/>
<path d="M0 0 C0.99 0 1.98 0 3 0 C2.59307579 2.84846945 2.09390153 4.84591849 0.5859375 7.3203125 C-9.03244684 23.57206535 -10.02002658 52.43572228 -6.20703125 70.42578125 C-5.28862333 73.70178805 -4.23524511 76.83212048 -3 80 C-2.78472656 80.69996094 -2.56945312 81.39992188 -2.34765625 82.12109375 C3.32740072 99.96228592 17.1368942 115.36203882 33.5703125 123.90234375 C54.65034928 134.36186232 79.43102656 138.06576003 102.3984375 131.65625 C105.03823576 130.99035494 107.28996101 130.88174375 110 131 C109 133 109 133 106.3046875 134 C105.17289063 134.33 104.04109375 134.66 102.875 135 C101.75867188 135.33 100.64234375 135.66 99.4921875 136 C98.33976563 136.33 97.18734375 136.66 96 137 C94.92274658 137.34514648 93.84549316 137.69029297 92.7355957 138.04589844 C88.91281767 139.02226708 85.67574096 139.2583894 81.73828125 139.265625 C81.06637253 139.26753845 80.39446381 139.2694519 79.70219421 139.27142334 C78.28786848 139.27277567 76.87352993 139.26914622 75.45922852 139.26074219 C73.33515275 139.25011335 71.21193907 139.2606257 69.08789062 139.2734375 C50.38250719 139.29569622 34.81464234 134.6980114 18.671875 125.41796875 C15.48274851 123.65669127 15.48274851 123.65669127 12 123 C9.13392945 124.12535315 9.13392945 124.12535315 6.1875 125.8125 C-2.86887738 130.74488665 -9.92744903 131.31805929 -20.125 131.25 C-21.29160156 131.25773438 -22.45820313 131.26546875 -23.66015625 131.2734375 C-24.78550781 131.27085937 -25.91085938 131.26828125 -27.0703125 131.265625 C-28.08883301 131.26336914 -29.10735352 131.26111328 -30.15673828 131.25878906 C-33.11914268 130.98915583 -35.31182154 130.24145641 -38 129 C-38 128.67 -38 128.34 -38 128 C-36.83984375 127.96261719 -35.6796875 127.92523438 -34.484375 127.88671875 C-20.70531703 127.3485667 -7.18493848 126.05509767 4.15625 117.34375 C6 116 6 116 8 116 C5.86769884 112.35124863 3.54616499 108.89967173 1.125 105.4375 C-2.82227901 99.54549928 -5.4991136 93.60948549 -8 87 C-9.06615699 84.44986774 -10.13444106 81.90063649 -11.203125 79.3515625 C-13.66573027 72.08446262 -13.18612391 64.4048141 -13.18530273 56.83276367 C-13.18749026 54.57256258 -13.20568291 52.31284943 -13.22460938 50.05273438 C-13.22754391 48.59895998 -13.2295283 47.1451833 -13.23046875 45.69140625 C-13.23457764 44.38373291 -13.23868652 43.07605957 -13.24291992 41.72875977 C-12.99256942 37.88594244 -12.16378303 34.65933228 -11 31 C-10.74836123 29.37832793 -10.51802177 27.75315944 -10.3125 26.125 C-8.79239201 17.2515241 -4.98857898 7.48286847 0 0 Z " fill="#332D2E" transform="translate(228,210)"/>
<path d="M0 0 C9.29982634 3.52002773 18.27872998 7.29172452 26.5078125 12.94921875 C24.98208594 16.27557757 23.57436746 17.90484877 20.5078125 19.94921875 C19.9303125 19.33046875 19.3528125 18.71171875 18.7578125 18.07421875 C13.07037468 12.7027497 6.33472775 13.25403528 -1.0859375 13.4375 C-9.45399205 13.97791163 -17.02324422 17.06941087 -24.80761719 19.98242188 C-29.33446739 21.61268077 -33.94024463 22.96626016 -38.5546875 24.32421875 C-39.39378662 24.57445801 -40.23288574 24.82469727 -41.09741211 25.08251953 C-53.28514532 28.69975127 -64.60495018 29.31764851 -76.4921875 23.94921875 C-77.0696875 24.93921875 -77.6471875 25.92921875 -78.2421875 26.94921875 C-78.9846875 27.93921875 -79.7271875 28.92921875 -80.4921875 29.94921875 C-81.8121875 29.94921875 -83.1321875 29.94921875 -84.4921875 29.94921875 C-82.36366799 25.34400385 -79.76939839 21.76767763 -75.4921875 18.94921875 C-71.77495417 18.20474926 -68.25571613 18.47916784 -64.4921875 18.76171875 C-46.38526203 19.41425916 -31.03692852 13.48346868 -15.49243164 4.55004883 C-5.27611321 -1.25382919 -5.27611321 -1.25382919 0 0 Z M-86.4921875 29.94921875 C-85.8321875 30.27921875 -85.1721875 30.60921875 -84.4921875 30.94921875 C-85.4821875 30.94921875 -86.4721875 30.94921875 -87.4921875 30.94921875 C-87.1621875 30.61921875 -86.8321875 30.28921875 -86.4921875 29.94921875 Z " fill="#DE6850" transform="translate(237.4921875,158.05078125)"/>
<path d="M0 0 C-0.33 1.65 -0.66 3.3 -1 5 C-2.0003125 4.83886719 -3.000625 4.67773438 -4.03125 4.51171875 C-21.76842514 1.99628101 -42.82798541 4.2910539 -58.9296875 12.4921875 C-69.60433211 17.734443 -82.21784748 20.00273638 -94 19 C-94.83660156 18.94328125 -95.67320312 18.8865625 -96.53515625 18.828125 C-98.75 18.625 -98.75 18.625 -102 18 C-102.33 17.34 -102.66 16.68 -103 16 C-102.2471875 16.03480469 -101.494375 16.06960937 -100.71875 16.10546875 C-84.2565301 16.52501562 -70.20033624 12.45241595 -55.46557617 5.35302734 C-38.46977441 -2.82327241 -18.0516112 -8.47320526 0 0 Z " fill="#039F5E" transform="translate(234,117)"/>
<path d="M0 0 C0.99 0 1.98 0 3 0 C2.59307579 2.84846945 2.09390153 4.84591849 0.5859375 7.3203125 C-8.99679899 23.51183278 -10.14786522 52.63473542 -6.13671875 70.53125 C-5.20752194 73.74796043 -4.14451671 76.85602638 -3 80 C-2.63489172 81.65999543 -2.29032117 83.32530525 -2 85 C-2.99 84.67 -3.98 84.34 -5 84 C-5.99 84.99 -6.98 85.98 -8 87 C-8.65365399 85.46163292 -9.29753603 83.91911234 -9.9375 82.375 C-10.29714844 81.51648438 -10.65679687 80.65796875 -11.02734375 79.7734375 C-13.62992056 72.35243534 -13.18614408 64.59083898 -13.18530273 56.83276367 C-13.18749026 54.57256258 -13.20568291 52.31284943 -13.22460938 50.05273438 C-13.22754391 48.59895998 -13.2295283 47.1451833 -13.23046875 45.69140625 C-13.23457764 44.38373291 -13.23868652 43.07605957 -13.24291992 41.72875977 C-12.99256942 37.88594244 -12.16378303 34.65933228 -11 31 C-10.74836123 29.37832793 -10.51802177 27.75315944 -10.3125 26.125 C-8.79239201 17.2515241 -4.98857898 7.48286847 0 0 Z " fill="#473432" transform="translate(228,210)"/>
<path d="M0 0 C2.31 0 4.62 0 7 0 C9.51242676 4.75323981 11.40936645 9.56719791 13.1875 14.625 C13.46013672 15.37523437 13.73277344 16.12546875 14.01367188 16.8984375 C14.27083984 17.62546875 14.52800781 18.3525 14.79296875 19.1015625 C15.0252417 19.75463379 15.25751465 20.40770508 15.49682617 21.08056641 C16 23 16 23 16 27 C13.69 27 11.38 27 9 27 C7.515 22.05 7.515 22.05 6 17 C4.35 17 2.7 17 1 17 C0.01 20.3 -0.98 23.6 -2 27 C-3.98 27 -5.96 27 -8 27 C-7.66074289 21.45880054 -6.32299169 16.50097937 -4.5625 11.25 C-4.2363269 10.2753479 -4.2363269 10.2753479 -3.90356445 9.28100586 C-2.79916934 6.06742773 -1.62267586 2.98874252 0 0 Z " fill="#2110EE" transform="translate(296,197)"/>
<path d="M0 0 C2.31 0 4.62 0 7 0 C8.49821059 3.37097383 9 5.20442119 9 9 C6.69 8.67 4.38 8.34 2 8 C2 8.99 2 9.98 2 11 C2.94875 11.12375 3.8975 11.2475 4.875 11.375 C8 12 8 12 10 14 C10.57295374 20.3024911 10.57295374 20.3024911 8.5625 22.75 C8.046875 23.1625 7.53125 23.575 7 24 C6.67 24.99 6.34 25.98 6 27 C3.1875 27.3125 3.1875 27.3125 0 27 C-2.70361469 23.75566237 -3 22.29107948 -3 18 C-0.69 18.33 1.62 18.66 4 19 C3.15318223 16.74447332 3.15318223 16.74447332 0.5625 16.0625 C-2 15 -2 15 -4 12 C-4.3125 9 -4.3125 9 -4 6 C-2.5625 4.3125 -2.5625 4.3125 -1 3 C-0.67 2.01 -0.34 1.02 0 0 Z " fill="#1209F6" transform="translate(276,197)"/>
<path d="M0 0 C5.94 0 11.88 0 18 0 C18 1.98 18 3.96 18 6 C16.02 6 14.04 6 12 6 C12 12.93 12 19.86 12 27 C10.02 27 8.04 27 6 27 C6 20.07 6 13.14 6 6 C4.02 6 2.04 6 0 6 C0 4.02 0 2.04 0 0 Z " fill="#1A0DF4" transform="translate(314,197)"/>
<path d="M0 0 C1.98 0 3.96 0 6 0 C6 6.93 6 13.86 6 21 C8.31 21 10.62 21 13 21 C13 22.98 13 24.96 13 27 C8.71 27 4.42 27 0 27 C0 18.09 0 9.18 0 0 Z " fill="#190CF4" transform="translate(334,197)"/>
<path d="M0 0 C8.90326882 1.04744339 15.96105564 8.84887711 22 15 C22.66 14.67 23.32 14.34 24 14 C25.4606285 16.64738916 26 17.89448334 26 21 C25.34 21 24.68 21 24 21 C23.42121094 20.39414063 22.84242188 19.78828125 22.24609375 19.1640625 C15.1307642 12.30859716 3.42212582 11.03319547 -6 10 C-6 9.34 -6 8.68 -6 8 C-4.33333333 6.33333333 -2.66666667 4.66666667 -1 3 C-0.67 2.01 -0.34 1.02 0 0 Z " fill="#017753" transform="translate(232,123)"/>
<path d="M0 0 C0.99 0 1.98 0 3 0 C2.59307579 2.84846945 2.09390153 4.84591849 0.5859375 7.3203125 C-8.60896313 22.8565239 -7.34656827 44.56369018 -8 62 C-8.33 62 -8.66 62 -9 62 C-9 51.77 -9 41.54 -9 31 C-9.33 31 -9.66 31 -10 31 C-10.50367035 24.02172848 -8.84679695 19.06818317 -6.125 12.6875 C-5.76019531 11.79482422 -5.39539063 10.90214844 -5.01953125 9.98242188 C-3.54048916 6.40851835 -2.1530353 3.22955295 0 0 Z " fill="#6F443C" transform="translate(228,210)"/>
<path d="M0 0 C3.45954956 1.32353979 6.7833453 2.84157609 10.11303711 4.46240234 C25.00070469 11.66257073 38.57837949 14.03360937 55 14.5625 C56.25167969 14.60568359 57.50335938 14.64886719 58.79296875 14.69335938 C61.86188523 14.79878017 64.93087389 14.90090342 68 15 C63.25428193 18.16381205 58.20752731 17.33916812 52.625 17.3125 C51.44067383 17.30758545 50.25634766 17.3026709 49.03613281 17.29760742 C40.89388808 17.18822896 33.74632515 16.63502044 26 14 C24.87078125 13.64808594 23.7415625 13.29617188 22.578125 12.93359375 C14.15931664 10.14876959 6.65591046 6.41295835 -1 2 C-0.67 1.34 -0.34 0.68 0 0 Z " fill="#D1644E" transform="translate(244,334)"/>
<path d="M0 0 C0.66 0 1.32 0 2 0 C5 3.46153846 5 3.46153846 5 6 C5.66 6 6.32 6 7 6 C8.13387784 7.16823777 9.26726764 8.33695247 10.3984375 9.5078125 C19.27680718 17.7798545 31.79623958 23.88548406 43.875 24.625 C45.02742188 24.69976562 46.17984375 24.77453125 47.3671875 24.8515625 C48.67042969 24.92503906 48.67042969 24.92503906 50 25 C44.54906131 28.4553862 38.08001807 26.880599 32 26 C19.47699598 23.01137128 9.6236897 15.21968749 2 5 C0.75 2.1953125 0.75 2.1953125 0 0 Z " fill="#039D5C" transform="translate(132,146)"/>
<path d="M0 0 C7.59858273 1.58143092 14.61827681 3.40697832 21 8 C21.33 8.66 21.66 9.32 22 10 C21.29875 9.97679687 20.5975 9.95359375 19.875 9.9296875 C13.84441138 9.81497522 8.77556127 10.25643433 3 12 C2.8046875 10.046875 2.609375 8.09375 2.4140625 6.140625 C1.96467035 3.8173524 1.14225762 2.0616357 0 0 Z " fill="#01784E" transform="translate(227,138)"/>
<path d="M0 0 C0 0.66 0 1.32 0 2 C6.27 2 12.54 2 19 2 C19 2.33 19 2.66 19 3 C17.85660156 3.04898437 16.71320313 3.09796875 15.53515625 3.1484375 C14.04424527 3.22345189 12.55336108 3.29900028 11.0625 3.375 C9.93038086 3.42140625 9.93038086 3.42140625 8.77539062 3.46875 C6.84492605 3.5726315 4.92057919 3.77895614 3 4 C2.67 4.66 2.34 5.32 2 6 C1.01 6 0.02 6 -1 6 C0.2065625 7.1446875 0.2065625 7.1446875 1.4375 8.3125 C4 11 4 11 5 14 C4.01 14.99 3.02 15.98 2 17 C-1.63 13.37 -5.26 9.74 -9 6 C-8.01 5.67 -7.02 5.34 -6 5 C-5.6278958 3.67696283 -5.29369827 2.34262065 -5 1 C-3 0 -3 0 0 0 Z " fill="#F17359" transform="translate(189,335)"/>
<path d="M0 0 C-0.06874423 4.80601932 -0.15664272 9.61115742 -0.26245117 14.41650391 C-0.29574214 16.05182134 -0.32376106 17.68725482 -0.34643555 19.32275391 C-0.37990628 21.67140243 -0.43221436 24.01898337 -0.48828125 26.3671875 C-0.49467117 27.10057343 -0.5010611 27.83395935 -0.50764465 28.58956909 C-0.56762695 30.65185547 -0.56762695 30.65185547 -1 34 C-1.99 34.66 -2.98 35.32 -4 36 C-4.0247636 31.65836985 -4.04289015 27.3167774 -4.05493164 22.97509766 C-4.05995288 21.49885339 -4.06677116 20.02261408 -4.07543945 18.54638672 C-4.08760189 16.42153702 -4.09325046 14.29675322 -4.09765625 12.171875 C-4.10289307 10.8940918 -4.10812988 9.61630859 -4.11352539 8.29980469 C-3.94739981 3.47108779 -3.94739981 3.47108779 -3 1 C-1 0 -1 0 0 0 Z " fill="#2B2A2C" transform="translate(220,240)"/>
<path d="M0 0 C-1 2 -1 2 -3.6953125 3 C-5.39300781 3.495 -5.39300781 3.495 -7.125 4 C-8.89617187 4.51820313 -8.89617187 4.51820313 -10.703125 5.046875 C-12.33507812 5.51867187 -12.33507812 5.51867187 -14 6 C-14.71671875 6.23203125 -15.4334375 6.4640625 -16.171875 6.703125 C-20.19867368 7.99613375 -23.78451961 8.32426772 -28 8 C-28.99 7.34 -29.98 6.68 -31 6 C-28.69 6 -26.38 6 -24 6 C-29.61 5.67 -35.22 5.34 -41 5 C-41 4.67 -41 4.34 -41 4 C-40.11030518 3.97812622 -40.11030518 3.97812622 -39.20263672 3.95581055 C-28.48651757 3.66234609 -18.19713211 3.31297974 -7.77734375 0.62109375 C-5.08325779 0.01861883 -2.74909554 -0.11601688 0 0 Z " fill="#4F3734" transform="translate(338,341)"/>
<path d="M0 0 C3.9589232 0.10950024 7.91686326 0.24021668 11.875 0.375 C13.56689453 0.42140625 13.56689453 0.42140625 15.29296875 0.46875 C16.90751953 0.52675781 16.90751953 0.52675781 18.5546875 0.5859375 C19.54968262 0.6173584 20.54467773 0.6487793 21.56982422 0.68115234 C24 1 24 1 26 3 C24.02 3 22.04 3 20 3 C20 3.33 20 3.66 20 4 C13.73 4 7.46 4 1 4 C1.33 3.34 1.66 2.68 2 2 C1.34 1.34 0.68 0.68 0 0 Z " fill="#26282B" transform="translate(290,345)"/>
<path d="M0 0 C4.46032932 1.33343178 8.19627213 3.1123453 12.1875 5.5 C13.21230469 6.1084375 14.23710937 6.716875 15.29296875 7.34375 C17.22013675 8.52285423 19.12018066 9.74678711 21 11 C21 11.66 21 12.32 21 13 C20.01 13.33 19.02 13.66 18 14 C15.80078125 12.48828125 15.80078125 12.48828125 13.3125 10.3125 C9.04664662 6.73569782 5.07373129 4.25499169 0 2 C0 1.34 0 0.68 0 0 Z " fill="#F2866B" transform="translate(351,165)"/>
<path d="M0 0 C-1 3 -1 3 -4.1875 4.625 C-11.14608657 7.54666389 -18.47527405 7.12173426 -25.875 7.0625 C-27.47988281 7.05573242 -27.47988281 7.05573242 -29.1171875 7.04882812 C-31.74484986 7.03709749 -34.37239538 7.02068228 -37 7 C-37 6.67 -37 6.34 -37 6 C-36.42668945 5.9906543 -35.85337891 5.98130859 -35.26269531 5.97167969 C-23.32532954 5.72747365 -10.86206691 0 0 0 Z " fill="#AE5748" transform="translate(237,335)"/>
<path d="M0 0 C4.3363554 0.94355881 8.65465472 1.89763615 12.9375 3.0625 C17.56382429 4.24945593 22.24885413 4.63003372 27 5 C27 5.66 27 6.32 27 7 C17.70415973 7.47266984 7.82501101 6.4050539 0 1 C0 0.67 0 0.34 0 0 Z " fill="#000FEA" transform="translate(132,135)"/>
<path d="M0 0 C0 0.66 0 1.32 0 2 C6.27 2 12.54 2 19 2 C19 2.33 19 2.66 19 3 C17.85660156 3.04898437 16.71320313 3.09796875 15.53515625 3.1484375 C14.04424527 3.22345189 12.55336108 3.29900028 11.0625 3.375 C9.93038086 3.42140625 9.93038086 3.42140625 8.77539062 3.46875 C6.84492605 3.5726315 4.92057919 3.77895614 3 4 C2.67 4.66 2.34 5.32 2 6 C-0.97 5.505 -0.97 5.505 -4 5 C-4.33 3.68 -4.66 2.36 -5 1 C-3 0 -3 0 0 0 Z " fill="#E16F57" transform="translate(189,335)"/>
<path d="M0 0 C2.64 0.33 5.28 0.66 8 1 C6.60667426 4.36720387 5.0210714 5.9859524 2 8 C0.4375 6.8125 0.4375 6.8125 -1 5 C-0.6875 2.3125 -0.6875 2.3125 0 0 Z " fill="#D56359" transform="translate(256,170)"/>
<path d="M0 0 C3.02822696 0.6775485 5.77654386 1.64606742 8.625 2.875 C9.40101563 3.20242188 10.17703125 3.52984375 10.9765625 3.8671875 C13 5 13 5 15 8 C4.44191344 4.92482916 4.44191344 4.92482916 0 3 C0 2.01 0 1.02 0 0 Z " fill="#E97058" transform="translate(240,378)"/>
<path d="M0 0 C0.33 0 0.66 0 1 0 C0.5547115 5.27315333 -0.08373163 10.01770224 -2 15 C-2.66 15 -3.32 15 -4 15 C-2.73076923 2.73076923 -2.73076923 2.73076923 0 0 Z " fill="#362E2F" transform="translate(223,224)"/>
<path d="M0 0 C0.66 0.33 1.32 0.66 2 1 C0.75023244 4.65316671 0.32901247 5.78065836 -3 8 C-3.99 8 -4.98 8 -6 8 C-4.55746343 4.63408134 -2.66735273 2.48952921 0 0 Z M-8 8 C-7.34 8.33 -6.68 8.66 -6 9 C-6.99 9 -7.98 9 -9 9 C-8.67 8.67 -8.34 8.34 -8 8 Z " fill="#E76D5E" transform="translate(159,180)"/>
<path d="M0 0 C0.99 0 1.98 0 3 0 C2.46930939 3.82097239 1.50298434 6.06171403 -1 9 C-2.1875 7.3125 -2.1875 7.3125 -3 5 C-1.8125 2.25 -1.8125 2.25 0 0 Z " fill="#70453C" transform="translate(228,210)"/>
<path d="M0 0 C-1 3 -1 3 -4.3125 4.75 C-8.97563098 6.33072237 -8.97563098 6.33072237 -12 5 C-11.01 5 -10.02 5 -9 5 C-9 4.34 -9 3.68 -9 3 C-2.25 0 -2.25 0 0 0 Z " fill="#D86750" transform="translate(237,335)"/>
<path d="M0 0 C0 1.98 0 3.96 0 6 C-0.99 6.495 -0.99 6.495 -2 7 C-2.65772428 10.02934491 -2.65772428 10.02934491 -3 13 C-3.33 13 -3.66 13 -4 13 C-4.152 3.88 -4.152 3.88 -3 1 C-1 0 -1 0 0 0 Z " fill="#3D3131" transform="translate(220,240)"/>
<path d="M0 0 C0.66 0 1.32 0 2 0 C2.33 0.66 2.66 1.32 3 2 C3.99 2.33 4.98 2.66 6 3 C5.67 3.99 5.34 4.98 5 6 C3.02 5.34 1.04 4.68 -1 4 C-0.67 2.68 -0.34 1.36 0 0 Z " fill="#EE7158" transform="translate(234,374)"/>
<path d="M0 0 C1.32 0 2.64 0 4 0 C3.67 1.65 3.34 3.3 3 5 C0.525 4.01 0.525 4.01 -2 3 C-1.34 2.01 -0.68 1.02 0 0 Z " fill="#F07259" transform="translate(219,367)"/>
<path d="M0 0 C0.33 0 0.66 0 1 0 C1 1.65 1 3.3 1 5 C-1.64 5.33 -4.28 5.66 -7 6 C-7 5.01 -7 4.02 -7 3 C-4.69 3.33 -2.38 3.66 0 4 C0 2.68 0 1.36 0 0 Z " fill="#AC53A5" transform="translate(285,202)"/>
</svg>
